# xmcd
#
# Track frame offsets: 
#        150
#        8882
#        19810
#        33477
#        44907
#        54395
#        63800
#        72477
#        83460
#        93370
#        102682
#        113442
#        124665
#
# Disc length: 1781 seconds
#
# Revision: 8
# Processed by: cddbd v1.4PL0 Copyright (c) Steve Scherf et al.
# Submitted via: ExactAudioCopy v0.95a2
#
DISCID=a706f30d
DTITLE=Riders In The Sky - Woody's Roundup (Toy Story 2)
DYEAR=2000
DGENRE=Soundtrack
TTITLE0=Woody's Roundup
TTITLE1=Act Naturally
TTITLE2=Jessie, the Yodelin' Cowgirl
TTITLE3=The Ballad of Bullseye
TTITLE4=You've Got A Friend In Me
TTITLE5=Hey Howdy Hey
TTITLE6=My Favorite Toys
TTITLE7=How Does She Yodel?
TTITLE8=Prospector Polka
TTITLE9=You've Got A Friend In Me (Instrumental)
TTITLE10="One, Two, Three," Said The Prospector
TTITLE11=Home On The Range
TTITLE12=Shhh! A Secret Bonus Track!
EXTD=Disney - Pixar\nToy Story 2\nA Rootin'-Tootin' Collection of Wood
EXTD=y's Favorite Songs\nISBN 0-7634-0660-0\n\nRiders In The Sky are:\n
EXTD=Ranger Doug - Guitar, Vocals\nToo Slim - Bunkhouse Bass, Guitar, 
EXTD=Vocals, SoundEffects\nWoody Paul - Fiddle, Vocals\nJoey The Cowpo
EXTD=lka King - Accordian, Vocals, Keyboard, Percussion, Sound Effects
EXTD=\n\nWith Devon Dawson -Vocals on "Jessie, the Yodelin' Coegirl" a
EXTD=nd "How Does She Yodel?"\nRichard O'Brien - Guitars\nJonathan Yud
EXTD=kin - Fiddle\nBob Mater - Drums,Precussion\nSqueeky Toy Courtesy 
EXTD=of George LaBour\nKids Singing on "HeyHowdy Hey" Casey Chrisman, 
EXTD=Katherine Chrisman, Rebecca Chrisman, GraceGreen, Alice LaBour, K
EXTD=atie Miskulin\n
EXTT0=
EXTT1=
EXTT2=
EXTT3=
EXTT4=
EXTT5=
EXTT6=
EXTT7=
EXTT8=
EXTT9=
EXTT10=
EXTT11=
EXTT12=
PLAYORDER=
